# xmcd
#
# Track frame offsets: 
#        150
#        13027
#        33750
#
# Disc length: 814 seconds
#
# Revision: 1
# Processed by: cddbd v1.5.2PL0 Copyright (c) Steve Scherf et al.
# Submitted via: ExactAudioCopy v0.99pb3
#
DISCID=16032c03
DTITLE=Alanis Morissette - So Pure [CDS)
DYEAR=1999
DGENRE=Pop
TTITLE0=So Pure
TTITLE1=I Was Hoping
TTITLE2=So Pure (pure ecstacy mix)
EXTD=YEAR: 1999
EXTT0=
EXTT1=
EXTT2=
PLAYORDER=
